<svg width="42" height="60" viewBox="0 0 42 60" fill="none" xmlns="http://www.w3.org/2000/svg">
<path d="M40.461 59.5005H1.19295C0.54677 59.5005 0 58.9343 0 58.2652V13.228C0 12.5589 0.54677 11.9927 1.19295 11.9927H40.461C41.1072 11.9927 41.654 12.5589 41.654 13.228V58.2652C41.654 58.9343 41.1072 59.5005 40.461 59.5005ZM2.38591 57.0299H39.2681V14.4633H2.38591V57.0299Z" fill="#6BB42E"/>
<path d="M36.2359 54.0961H5.41794C5.02028 54.0961 4.72205 53.7873 4.72205 53.3755V17.8605C4.72205 17.4487 5.02028 17.1399 5.41794 17.1399H36.2359C36.6336 17.1399 36.9318 17.4487 36.9318 17.8605V53.3241C36.9815 53.7873 36.6336 54.0961 36.2359 54.0961ZM6.11383 52.6035H35.54V18.6326H6.11383V52.6035Z" fill="#6BB42E"/>
<path d="M32.1104 14.5148H9.69277C9.39454 14.5148 9.146 14.4118 8.99688 14.1545C8.79806 13.9486 8.74835 13.6398 8.74835 13.3824L9.69277 6.02208C9.74248 5.50737 10.1401 5.14708 10.6372 5.14708H15.6078C15.757 2.26471 18.0932 0 20.8767 0C23.71 0 25.9965 2.31619 26.1456 5.14708H31.1162C31.6133 5.14708 32.0109 5.50737 32.0607 6.02208L33.0548 13.4339C33.1045 13.7427 33.0051 14.0001 32.8062 14.2059C32.6571 14.4118 32.4086 14.5148 32.1104 14.5148ZM10.7863 12.5589H31.0665L30.3209 7.20591H25.2012C24.6544 7.20591 24.2567 6.74267 24.2567 6.22797C24.2567 6.17649 24.2567 6.12502 24.2567 6.07355V5.55885C24.2567 3.65443 22.7656 2.05883 20.8767 2.05883C19.0376 2.05883 17.4967 3.60296 17.4967 5.55885V6.07355C17.4967 6.12502 17.4967 6.17649 17.4967 6.22797C17.4967 6.79414 17.0493 7.20591 16.5523 7.20591H11.4822L10.7863 12.5589Z" fill="#6BB42E"/>
<path d="M20.827 7.77216C19.7335 7.77216 18.8387 6.84566 18.8387 5.71329C18.8387 4.58091 19.7335 3.65442 20.827 3.65442C21.9205 3.65442 22.8153 4.58091 22.8153 5.71329C22.8153 6.84566 21.9205 7.77216 20.827 7.77216ZM20.827 4.68385C20.2802 4.68385 19.8329 5.1471 19.8329 5.71329C19.8329 6.27948 20.2802 6.74272 20.827 6.74272C21.3738 6.74272 21.8708 6.27948 21.8708 5.71329C21.8708 5.1471 21.3738 4.68385 20.827 4.68385Z" fill="#6BB42E"/>
<path d="M28.4817 39.9931H13.3213C12.9733 39.9931 12.7248 39.6843 12.7248 39.3755V23.368C12.7248 23.0077 13.023 22.7504 13.3213 22.7504H28.4817C28.8297 22.7504 29.0782 23.0592 29.0782 23.368V39.3755C29.0782 39.7358 28.8297 39.9931 28.4817 39.9931ZM13.9177 38.7578H27.8355V23.9857H13.9177V38.7578Z" fill="#6BB42E"/>
<path d="M25.8473 40.0444H15.9558C15.6078 40.0444 15.3096 39.7356 15.3096 39.3753C15.3096 37.1106 16.2043 35.0003 17.6458 33.662C16.8505 32.787 16.4031 31.7061 16.4031 30.5223C16.4031 27.9487 18.4411 25.8899 20.8767 25.8899C23.362 25.8899 25.3503 28.0002 25.3503 30.5223C25.3503 31.7061 24.9029 32.787 24.1076 33.662C25.5491 35.0003 26.4438 37.1106 26.4438 39.3753C26.4935 39.7356 26.1953 40.0444 25.8473 40.0444ZM16.6019 38.7062H25.1514C25.0023 36.8017 24.1076 35.1032 22.7655 34.2282C22.6164 34.1253 22.4673 33.9194 22.4673 33.7135C22.4673 33.5076 22.5667 33.3017 22.7158 33.1473C23.5608 32.4782 24.0579 31.5002 24.0579 30.5223C24.0579 28.6693 22.6164 27.1767 20.827 27.1767C19.0376 27.1767 17.5961 28.6693 17.5961 30.5223C17.5961 31.5517 18.0931 32.4782 18.9381 33.1473C19.0873 33.2502 19.1867 33.4561 19.1867 33.7135C19.1867 33.9194 19.0873 34.1253 18.8884 34.2282C17.6458 35.1547 16.8008 36.8017 16.6019 38.7062Z" fill="#6BB42E"/>
<path d="M32.1103 44.8828H9.19566C8.84771 44.8828 8.59918 44.6254 8.59918 44.2651C8.59918 43.9047 8.84771 43.6473 9.19566 43.6473H32.16C32.508 43.6473 32.7565 43.9047 32.7565 44.2651C32.7068 44.6254 32.4583 44.8828 32.1103 44.8828Z" fill="#6BB42E"/>
<path d="M32.1103 49.1033H9.19566C8.84771 49.1033 8.59918 48.846 8.59918 48.4857C8.59918 48.1254 8.84771 47.868 9.19566 47.868H32.16C32.508 47.868 32.7565 48.1254 32.7565 48.4857C32.7565 48.846 32.4583 49.1033 32.1103 49.1033Z" fill="#6BB42E"/>
</svg>
