<svg width="46" height="51" viewBox="0 0 46 51" fill="none" xmlns="http://www.w3.org/2000/svg">
<path d="M8.06555 0.822617C7.81026 1.08697 7.68262 3.03658 7.68262 7.36537C7.68262 11.6942 7.81026 13.6438 8.06555 13.9081C8.32084 14.1725 9.6292 14.3047 11.7673 14.3047H15.1179L17.2241 16.056C18.3729 17.0143 19.5217 17.9395 19.7451 18.0717C20.5109 18.5343 21.0853 17.6091 21.0853 15.9238V14.3047H22.6171C23.4468 14.3047 24.3084 14.1394 24.5317 13.9081C25.0742 13.3464 25.0742 1.38437 24.5317 0.822617C24.2445 0.525219 21.9788 0.426086 16.2986 0.426086C10.6184 0.426086 8.35275 0.525219 8.06555 0.822617ZM23 7.36537V12.322H21.4683C19.6493 12.322 19.1706 12.7185 19.1706 14.2386V15.329L17.3836 13.842L15.5966 12.322H12.5969H9.59729V7.36537V2.40874H16.2986H23V7.36537Z" fill="#6BB42E"/>
<path d="M17.1921 6.27491L15.3732 8.15841L14.384 7.20014C13.4585 6.30796 13.3947 6.27491 12.8841 6.80361C12.3416 7.33231 12.4055 7.46449 13.8415 8.95146L15.3413 10.5045L17.7985 7.96015C19.9046 5.77926 20.1918 5.34969 19.8408 4.92012C19.5855 4.62273 19.3302 4.39142 19.2025 4.39142C19.1068 4.39142 18.1814 5.25056 17.1921 6.27491Z" fill="#6BB42E"/>
<path d="M31.3926 9.71159C28.2973 10.6699 26.957 14.7343 28.744 17.7744C30.5949 20.9136 35.5411 20.8475 37.4558 17.6091C38.3493 16.1222 38.3812 13.5778 37.5196 12.0577C36.3389 10.042 33.6583 8.98462 31.3926 9.71159ZM34.7752 11.7934C37.6791 13.3795 36.4027 18.27 33.0839 18.27C31.1693 18.27 29.7013 16.7169 29.7013 14.7343C29.7333 12.0908 32.4138 10.5377 34.7752 11.7934Z" fill="#6BB42E"/>
<path d="M3.27888 19.6579C3.02359 19.9222 2.89594 21.6405 2.89594 25.2093C2.89594 28.7781 3.02359 30.4964 3.27888 30.7607C3.50225 30.992 4.65106 31.1573 6.15088 31.1573C8.16129 31.1573 8.63996 31.2564 8.63996 31.6529C8.63996 32.0825 8.00173 32.1486 4.71488 32.1486C2.09816 32.1486 0.662157 32.2808 0.406868 32.5451C-0.135623 33.1069 -0.135623 49.0341 0.406868 49.5959C0.949358 50.1576 45.0506 50.1576 45.5931 49.5959C46.1356 49.0341 46.1356 33.1069 45.5931 32.5451C45.3698 32.3138 44.2529 32.1486 42.753 32.1486H40.2959L40.1682 28.8772C40.0725 25.3415 39.7534 24.5154 37.8706 23.0945C37.1048 22.4666 36.5303 22.4005 33.052 22.4005C29.5737 22.4005 28.9993 22.4666 28.2334 23.0945C26.3507 24.5154 26.0316 25.3415 25.9358 28.8772L25.8082 32.1486H19.1387C13.4266 32.1486 12.4693 32.0825 12.4693 31.6529C12.4693 31.2564 12.948 31.1573 14.9584 31.1573C16.4582 31.1573 17.607 30.992 17.8304 30.7607C18.3729 30.199 18.3729 20.2196 17.8304 19.6579C17.5432 19.3605 15.5009 19.2614 10.5546 19.2614C5.60839 19.2614 3.56608 19.3605 3.27888 19.6579ZM16.2986 25.2093V29.1746H10.5546H4.81061V25.2093V21.244H10.5546H16.2986V25.2093ZM30.3396 24.7136C30.3396 25.5728 31.0416 26.7954 31.8075 27.225C32.701 27.6876 32.7648 28.0511 32.0947 28.712C31.4884 29.3729 31.4884 30.0007 32.1266 30.6285C32.3819 30.9259 32.8286 31.1573 33.052 31.1573C33.2754 31.1573 33.7222 30.9259 33.9775 30.6285C34.6157 30.0007 34.6157 29.3729 34.0094 28.712C33.3392 28.0511 33.403 27.6876 34.2966 27.225C35.0624 26.7954 35.7645 25.5728 35.7645 24.7136C35.7645 23.9536 36.3708 24.1188 37.392 25.1763C38.2855 26.1015 38.3174 26.2667 38.3174 29.1416V32.1486H33.052H27.7867V29.1416C27.7867 26.2667 27.8186 26.1015 28.7121 25.1763C29.7333 24.1188 30.3396 23.9536 30.3396 24.7136ZM35.1263 24.3832C35.1263 24.5154 34.9029 25.011 34.6476 25.5397C33.8179 27.192 32.2862 27.192 31.4565 25.5067C31.2012 25.011 30.9778 24.5154 30.9778 24.3832C30.9778 24.2841 31.9032 24.218 33.052 24.218C34.2008 24.218 35.1263 24.2841 35.1263 24.3832ZM33.5307 29.6703C33.5307 29.9346 33.3073 30.1659 33.052 30.1659C32.7967 30.1659 32.5734 29.9346 32.5734 29.6703C32.5734 29.4059 32.7967 29.1746 33.052 29.1746C33.3073 29.1746 33.5307 29.4059 33.5307 29.6703ZM11.512 31.6529C11.512 31.9834 11.1929 32.1486 10.5546 32.1486C9.91641 32.1486 9.59729 31.9834 9.59729 31.6529C9.59729 31.3225 9.91641 31.1573 10.5546 31.1573C11.1929 31.1573 11.512 31.3225 11.512 31.6529ZM44.0614 35.1226V36.1139H23H1.93861V35.1226V34.1312H23H44.0614V35.1226ZM44.0614 42.5575V48.0098H23H1.93861V42.5575V37.1052H23H44.0614V42.5575Z" fill="#6BB42E"/>
<path d="M9.27818 23.8874C8.92715 24.2509 8.63995 24.8457 8.63995 25.2091C8.63995 25.5726 8.92715 26.1674 9.27818 26.5309C9.6292 26.8944 10.2036 27.1918 10.5546 27.1918C10.9056 27.1918 11.4801 26.8944 11.8311 26.5309C12.1821 26.1674 12.4693 25.5726 12.4693 25.2091C12.4693 24.8457 12.1821 24.2509 11.8311 23.8874C11.4801 23.5239 10.9056 23.2265 10.5546 23.2265C10.2036 23.2265 9.6292 23.5239 9.27818 23.8874ZM11.3524 25.2091C11.3524 25.8039 11.1609 26.0683 10.6184 26.1344C9.85258 26.2665 9.40582 25.5396 9.72493 24.6804C9.82067 24.383 10.2036 24.2178 10.6184 24.2839C11.1609 24.35 11.3524 24.6143 11.3524 25.2091Z" fill="#6BB42E"/>
</svg>
