<svg width="52" height="56" viewBox="0 0 52 56" fill="none" xmlns="http://www.w3.org/2000/svg">
<path d="M20.3964 37.2209H9.12163C6.69441 37.2209 4.38465 36.2414 2.66211 34.4457C0.939567 32.6091 0 30.242 0 27.6708V10.2847C0 9.18276 0.391486 8.16245 1.13531 7.42782C1.87913 6.65239 2.85785 6.24426 3.87571 6.24426H7.2425C7.94717 6.24426 8.5344 6.85645 8.5344 7.59107C8.5344 8.3257 7.94717 8.93788 7.2425 8.93788H3.87571C3.52338 8.93788 3.17104 9.10113 2.93615 9.34601C2.70126 9.59088 2.54466 9.95819 2.54466 10.3255V27.7116C2.54466 29.5482 3.24934 31.2623 4.46294 32.5683C5.7157 33.8743 7.35994 34.5681 9.12163 34.5681H20.3573C21.062 34.5681 21.6492 35.1803 21.6492 35.9149C21.6492 36.6087 21.1011 37.2209 20.3964 37.2209Z" fill="#6BB42E"/>
<path d="M10.2961 14.4068C8.18207 14.4068 6.45953 12.6111 6.45953 10.4072V3.99963C6.45953 1.79575 8.18207 0 10.2961 0C12.4101 0 14.1327 1.79575 14.1327 3.99963V10.4072C14.1327 12.6111 12.4101 14.4068 10.2961 14.4068ZM10.2961 2.65281C9.59142 2.65281 9.00419 3.265 9.00419 3.99963V10.4072C9.00419 11.1418 9.59142 11.754 10.2961 11.754C11.0008 11.754 11.588 11.1418 11.588 10.4072V3.99963C11.588 3.265 11.0008 2.65281 10.2961 2.65281Z" fill="#6BB42E"/>
<path d="M24.9769 37.2209H18.2824C17.5778 37.2209 16.9905 36.6087 16.9905 35.874C16.9905 35.1394 17.5778 34.5272 18.2824 34.5272H24.9769C26.7386 34.5272 28.3828 33.7926 29.6355 32.5274C30.8883 31.2214 31.5538 29.5073 31.5538 27.6707V10.2846C31.5538 9.91731 31.3972 9.54999 31.1623 9.30512C30.9275 9.06024 30.5751 8.89699 30.2228 8.89699H26.856C26.1513 8.89699 25.5641 8.28481 25.5641 7.55018C25.5641 6.81556 26.1513 6.20337 26.856 6.20337H30.2228C31.2798 6.20337 32.2194 6.61149 32.9632 7.38693C33.707 8.16237 34.0985 9.18268 34.0985 10.2438V27.6299C34.0985 30.1603 33.1589 32.5682 31.4364 34.364C29.7138 36.2005 27.4041 37.2209 24.9769 37.2209Z" fill="#6BB42E"/>
<path d="M23.8025 14.4068C21.6885 14.4068 19.9659 12.6111 19.9659 10.4072V3.99963C19.9659 1.79575 21.6885 0 23.8025 0C25.9165 0 27.6391 1.79575 27.6391 3.99963V10.4072C27.6391 12.6111 25.9165 14.4068 23.8025 14.4068ZM23.8025 2.65281C23.0978 2.65281 22.5106 3.265 22.5106 3.99963V10.4072C22.5106 11.1418 23.0978 11.754 23.8025 11.754C24.5072 11.754 25.0944 11.1418 25.0944 10.4072V3.99963C25.0944 3.265 24.5072 2.65281 23.8025 2.65281Z" fill="#6BB42E"/>
<path d="M28.3436 55.056H21.0228C19.3786 55.056 17.8518 54.403 16.6773 53.1786C15.5028 51.9543 14.8765 50.3626 14.8765 48.6485V35.8742C14.8765 35.1395 15.4637 34.5273 16.1684 34.5273C16.873 34.5273 17.4603 35.1395 17.4603 35.8742V48.6485C17.4603 49.628 17.8518 50.6075 18.5173 51.3013C19.1828 51.9951 20.0832 52.4032 21.0619 52.4032H28.3827C29.0874 52.4032 29.7138 52.1175 30.2227 51.6278C30.7317 51.0972 30.9666 50.4442 30.9666 49.7096V44.8121C30.9666 43.7918 31.358 42.8123 32.0627 42.0776C32.7674 41.343 33.707 40.9349 34.6857 40.9349H39.3444C40.049 40.9349 40.6363 41.5471 40.6363 42.2817C40.6363 43.0163 40.049 43.6285 39.3444 43.6285H34.6074C34.2942 43.6285 34.0201 43.751 33.7853 43.9958C33.5895 44.1999 33.4329 44.5264 33.4329 44.8529V49.7504C33.4329 51.1788 32.8848 52.5256 31.9453 53.5459C31.0057 54.4846 29.7138 55.056 28.3436 55.056Z" fill="#6BB42E"/>
<path d="M45.0601 48.1994C41.5367 48.1994 38.6397 45.2201 38.6397 41.5062C38.6397 37.8331 41.4976 34.813 45.0601 34.813C48.6226 34.813 51.4805 37.7923 51.4805 41.5062C51.4805 45.1793 48.6226 48.1994 45.0601 48.1994ZM45.0601 36.9352C42.6329 36.9352 40.6754 38.9758 40.6754 41.5062C40.6754 44.0366 42.6329 46.0772 45.0601 46.0772C47.4873 46.0772 49.4447 44.0366 49.4447 41.5062C49.4447 38.9758 47.4873 36.9352 45.0601 36.9352Z" fill="#6BB42E"/>
<path d="M45.0601 44.3224C43.5725 44.3224 42.3197 43.0572 42.3197 41.4655C42.3197 39.8738 43.5333 38.6086 45.0601 38.6086C46.5869 38.6086 47.8005 39.8738 47.8005 41.4655C47.8005 43.0572 46.5869 44.3224 45.0601 44.3224ZM45.0601 40.2411C44.3946 40.2411 43.8856 40.8125 43.8856 41.4655C43.8856 42.1593 44.4337 42.6899 45.0601 42.6899C45.7256 42.6899 46.2346 42.1185 46.2346 41.4655C46.2737 40.8125 45.7256 40.2411 45.0601 40.2411Z" fill="#6BB42E"/>
</svg>
