<svg width="49" height="55" viewBox="0 0 49 55" fill="none" xmlns="http://www.w3.org/2000/svg">
<path d="M36.8623 1.33862C34.4011 2.21144 32.0747 4.69025 31.3329 7.2738C30.6586 9.61296 30.6586 10.5207 31.3329 12.8948C32.3444 16.421 36.3229 19.4933 39.8967 19.4933C44.4821 19.4933 49 14.815 49 10.0668C49 5.21394 44.4484 0.605452 39.7619 0.640366C39.1887 0.675278 37.8738 0.95458 36.8623 1.33862ZM42.5266 3.29374C45.1564 4.41095 46.977 7.16906 46.977 10.0668C46.977 14.012 43.7066 17.3985 39.8967 17.3985C34.9742 17.3985 31.4678 11.987 33.3559 7.34363C34.8394 3.60795 39.0201 1.75757 42.5266 3.29374Z" fill="#6BB42E"/>
<path d="M39.2898 5.24867C39.0538 5.49306 38.8852 6.54044 38.8852 7.58782V9.54293L37.1994 10.5205C36.0531 11.1838 35.5136 11.7424 35.5136 12.1963C35.5136 13.3833 36.3903 13.3135 38.5818 11.917L40.7396 10.5903L40.8407 8.18134C40.9756 5.31849 40.335 4.16637 39.2898 5.24867Z" fill="#6BB42E"/>
<path d="M17.4083 8.35604C14.1379 9.36852 12.7218 13.6628 14.6099 16.8748C16.5654 20.1915 21.7913 20.1217 23.8143 16.7002C24.7583 15.1292 24.792 12.4409 23.8817 10.8349C22.6342 8.70517 19.8021 7.58795 17.4083 8.35604ZM20.9822 10.5556C24.0503 12.2314 22.7017 17.3985 19.1952 17.3985C17.1723 17.3985 15.6214 15.7576 15.6214 13.6628C15.6551 10.8698 18.4872 9.22886 20.9822 10.5556Z" fill="#6BB42E"/>
<path d="M14.7785 22.077C14.2053 22.3214 13.3287 23.0196 12.8567 23.6131C12.0138 24.6605 12.0138 24.6605 7.93418 24.8002C3.51741 24.9049 2.8431 25.1842 1.32589 27.3139C0.651571 28.2216 0.617856 28.7802 0.516708 40.7553C0.449277 51.6481 0.482992 53.3239 0.955013 53.7079C1.3596 54.0571 1.5619 54.0571 1.96649 53.7079C2.37108 53.3588 2.47222 52.3813 2.47222 48.9598V44.6306H7.02385H11.5755V47.7728C11.5755 51.3688 12.0475 52.6955 13.5984 53.5334C14.8459 54.1967 15.3854 54.1967 16.6328 53.5334C18.1838 52.6955 18.6558 51.3688 18.6558 47.7728V44.6306H32.8164H46.9771V48.9598C46.9771 52.3813 47.0782 53.3588 47.4828 53.7079C47.8874 54.0571 48.0897 54.0571 48.4943 53.7079C48.9326 53.3239 49 51.4735 49 40.8251C49 29.688 48.9326 28.2565 48.3931 27.1742C47.2805 24.87 46.6399 24.7303 35.9183 24.7303H26.3767L25.4664 23.648C24.9944 23.0196 24.084 22.3214 23.4772 22.077C22.0611 21.4485 16.1608 21.4485 14.7785 22.077ZM21.3531 24.2066C21.117 24.5209 20.5102 25.0795 20.0044 25.4286L19.0941 26.0919L17.7792 24.9049L16.4643 23.7179L19.1278 23.683C21.4879 23.683 21.7239 23.7528 21.3531 24.2066ZM17.1723 25.6032C18.1163 26.476 19.0267 27.1742 19.1615 27.1742C19.2964 27.1742 20.2404 26.4411 21.2519 25.5333L23.1063 23.8924L23.9155 24.8351C24.6572 25.7428 24.7246 26.0919 24.7246 29.8276V33.8077L23.9492 33.6331C23.3423 33.4585 17.5432 34.7503 14.2053 35.7628C13.6321 35.9373 13.5984 35.5533 13.5984 30.9099C13.5984 26.3363 13.6659 25.7777 14.3065 24.9398C14.6773 24.451 15.0819 24.0321 15.1831 24.0321C15.2842 24.0321 16.1945 24.7303 17.1723 25.6032ZM11.5755 29.4436V32.062H7.02385H2.47222V30.456C2.47222 29.1643 2.6408 28.6755 3.44998 27.8376C4.42774 26.86 4.52889 26.8251 8.00161 26.8251H11.5755V29.4436ZM46.3702 27.4186C46.8085 27.8376 46.9771 28.5009 46.9771 30.0371V32.062H36.8623H26.7476V29.4436V26.8251H36.2554C44.6169 26.8251 45.8307 26.8949 46.3702 27.4186ZM11.5755 34.8201C11.5755 36.2166 11.4406 36.6007 10.9349 36.7752C10.5977 36.88 10.0583 37.264 9.72112 37.6481C9.18166 38.2416 8.67593 38.3463 5.77637 38.3463H2.47222V35.7279V33.1094H7.02385H11.5755V34.8201ZM46.9771 35.7279V38.3463H36.8623H26.7476V35.7279V33.1094H36.8623H46.9771V35.7279ZM24.32 35.9722C24.8258 36.4959 24.8595 37.7179 24.3538 38.2416C24.1515 38.4511 21.3193 39.3239 18.1163 40.1618C11.8115 41.7678 11.1709 41.7329 10.9686 40.0221C10.9012 39.5334 11.0697 38.9747 11.3058 38.7653C11.8452 38.3463 21.7576 35.6231 23.0726 35.5882C23.5446 35.5533 24.084 35.7279 24.32 35.9722ZM9.35024 41.4885L9.82226 42.5359H6.14724H2.47222V41.4885V40.4411H5.64151H8.84451L9.35024 41.4885ZM46.9771 41.4885V42.5359H32.8164C25.0281 42.5359 18.6558 42.3962 18.6558 42.2565C18.6558 42.082 19.9033 41.6281 21.4542 41.2441C23.9829 40.5807 25.2641 40.5109 35.6148 40.476L46.9771 40.4411V41.4885ZM16.6328 46.8301C16.6328 51.3339 16.4643 51.9623 15.1156 51.9623C13.8007 51.9623 13.5984 51.3339 13.5984 47.2142V43.3039L14.8796 42.9548C15.5539 42.7802 16.2283 42.6057 16.3968 42.5708C16.5317 42.5359 16.6328 44.4561 16.6328 46.8301Z" fill="#6BB42E"/>
</svg>
